HIERARCHY
ROOT newVegas:Hips
{
	OFFSET 0.000000 96.479958 0.000000
	CHANNELS 6 Xposition Yposition Zposition Xrotation Yrotation Zrotation
	JOINT newVegas:Pelvis
	{
		OFFSET 0.000000 0.000000 0.000000
		CHANNELS 3 Xrotation Yrotation Zrotation
		JOINT newVegas:LeftUpLeg
		{
			OFFSET 18.735201 -5.666702 -4.541200
			CHANNELS 3 Xrotation Yrotation Zrotation
			JOINT newVegas:LeftLeg
			{
				OFFSET -0.021200 -31.938179 0.493100
				CHANNELS 3 Xrotation Yrotation Zrotation
				JOINT newVegas:LeftFoot
				{
					OFFSET 0.021200 -31.938179 -4.336299
					CHANNELS 3 Xrotation Yrotation Zrotation
					JOINT newVegas:LeftToeBase
					{
						OFFSET 0.943001 -26.722000 15.023500
						CHANNELS 3 Xrotation Yrotation Zrotation
						End Site
						{
							OFFSET 0.000000 30.670183 0.000000
						}
					}
				}
				JOINT newVegas:Left_PantLeg
				{
					OFFSET 0.663870 -9.044666 -1.108900
					CHANNELS 3 Xrotation Yrotation Zrotation
					End Site
					{
						OFFSET 1.415995 20.635357 0.000000
					}
				}
			}
		}
		JOINT newVegas:RightUpLeg
		{
			OFFSET -18.735201 -5.666702 -4.541200
			CHANNELS 3 Xrotation Yrotation Zrotation
			JOINT newVegas:RightLeg
			{
				OFFSET 0.018946 -31.938133 0.493100
				CHANNELS 3 Xrotation Yrotation Zrotation
				JOINT newVegas:RightFoot
				{
					OFFSET -0.018946 -31.938126 -4.336299
					CHANNELS 3 Xrotation Yrotation Zrotation
					JOINT newVegas:RightToeBase
					{
						OFFSET -0.943001 -26.722004 15.023500
						CHANNELS 3 Xrotation Yrotation Zrotation
						End Site
						{
							OFFSET 0.000000 30.670187 0.000000
						}
					}
				}
				JOINT newVegas:Right_PantLeg
				{
					OFFSET -0.661674 -9.044716 -1.108900
					CHANNELS 3 Xrotation Yrotation Zrotation
					End Site
					{
						OFFSET -1.415958 20.635269 0.000000
					}
				}
			}
		}
	}
	JOINT newVegas:Spine
	{
		OFFSET 0.000000 10.199997 -0.299500
		CHANNELS 3 Xrotation Yrotation Zrotation
		JOINT newVegas:Spine1
		{
			OFFSET 0.000000 11.900002 -1.516600
			CHANNELS 3 Xrotation Yrotation Zrotation
			JOINT newVegas:Spine2
			{
				OFFSET 0.000000 13.600006 -2.842500
				CHANNELS 3 Xrotation Yrotation Zrotation
				JOINT newVegas:Neck
				{
					OFFSET 0.000000 9.624100 -2.890100
					CHANNELS 3 Xrotation Yrotation Zrotation
					JOINT newVegas:Head
					{
						OFFSET 0.000000 14.068802 -1.351900
						CHANNELS 3 Xrotation Yrotation Zrotation
						JOINT newVegas:Hair_Back
						{
							OFFSET 0.000000 3.231903 -17.524799
							CHANNELS 3 Xrotation Yrotation Zrotation
							End Site
							{
								OFFSET 0.000000 19.849884 0.000000
							}
						}
						JOINT newVegas:Hair_Front
						{
							OFFSET 0.000000 31.260406 4.573800
							CHANNELS 3 Xrotation Yrotation Zrotation
							JOINT newVegas:Hair_Front1
							{
								OFFSET 0.000000 2.284103 11.993300
								CHANNELS 3 Xrotation Yrotation Zrotation
								JOINT newVegas:Hair_Front2
								{
									OFFSET 0.000000 2.284103 11.993300
									CHANNELS 3 Xrotation Yrotation Zrotation
									End Site
									{
										OFFSET 0.000000 12.208862 0.000000
									}
								}
							}
						}
						JOINT newVegas:Jowel
						{
							OFFSET 0.000000 -7.458206 6.864100
							CHANNELS 3 Xrotation Yrotation Zrotation
							End Site
							{
								OFFSET 0.000000 19.849884 0.000000
							}
						}
					}
				}
				JOINT newVegas:LeftShoulder
				{
					OFFSET 15.263000 10.923401 -0.547700
					CHANNELS 3 Xrotation Yrotation Zrotation
					JOINT newVegas:LeftArm
					{
						OFFSET 25.438599 -2.830597 -13.032500
						CHANNELS 3 Xrotation Yrotation Zrotation
						JOINT newVegas:LeftForeArm
						{
							OFFSET 29.960503 0.000000 0.000000
							CHANNELS 3 Xrotation Yrotation Zrotation
							JOINT newVegas:LeftHand
							{
								OFFSET 27.849251 0.000000 0.000000
								CHANNELS 3 Xrotation Yrotation Zrotation
								JOINT newVegas:LeftHandThumb1
								{
									OFFSET 4.487587 -3.305161 6.305391
									CHANNELS 3 Xrotation Yrotation Zrotation
									JOINT newVegas:LeftHandThumb2
									{
										OFFSET 5.480453 -3.164139 3.164143
										CHANNELS 3 Xrotation Yrotation Zrotation
										JOINT newVegas:LeftHandThumb3
										{
											OFFSET 5.159721 -2.978973 2.978967
											CHANNELS 3 Xrotation Yrotation Zrotation
											End Site
											{
												OFFSET 2.494507 5.926697 1.738678
											}
										}
									}
								}
								JOINT newVegas:LeftHandIndex1
								{
									OFFSET 18.578728 -0.527832 5.208049
									CHANNELS 3 Xrotation Yrotation Zrotation
									JOINT newVegas:LeftHandIndex2
									{
										OFFSET 3.192009 0.000000 0.000000
										CHANNELS 3 Xrotation Yrotation Zrotation
										JOINT newVegas:LeftHandIndex3
										{
											OFFSET 3.835129 0.000000 0.000000
											CHANNELS 3 Xrotation Yrotation Zrotation
											End Site
											{
												OFFSET -0.034599 3.816971 0.371180
											}
										}
									}
								}
								JOINT newVegas:LeftHandMiddle1
								{
									OFFSET 18.476105 0.000000 0.000000
									CHANNELS 3 Xrotation Yrotation Zrotation
									JOINT newVegas:LeftHandMiddle2
									{
										OFFSET 3.324875 0.000000 0.000000
										CHANNELS 3 Xrotation Yrotation Zrotation
										JOINT newVegas:LeftHandMiddle3
										{
											OFFSET 4.596550 0.000000 0.000000
											CHANNELS 3 Xrotation Yrotation Zrotation
											End Site
											{
												OFFSET 0.057701 4.578827 0.399218
											}
										}
									}
								}
								JOINT newVegas:LeftHandRing1
								{
									OFFSET 17.732719 0.121887 -4.201567
									CHANNELS 3 Xrotation Yrotation Zrotation
									JOINT newVegas:LeftHandRing2
									{
										OFFSET 2.733170 0.000000 0.000000
										CHANNELS 3 Xrotation Yrotation Zrotation
										JOINT newVegas:LeftHandRing3
										{
											OFFSET 3.178268 0.000000 0.000000
											CHANNELS 3 Xrotation Yrotation Zrotation
											End Site
											{
												OFFSET 0.119102 3.170624 0.185394
											}
										}
									}
								}
								JOINT newVegas:LeftHandPinky1
								{
									OFFSET 15.989624 -0.606689 -7.535461
									CHANNELS 3 Xrotation Yrotation Zrotation
									JOINT newVegas:LeftHandPinky2
									{
										OFFSET 2.538986 0.000000 0.000000
										CHANNELS 3 Xrotation Yrotation Zrotation
										JOINT newVegas:LeftHandPinky3
										{
											OFFSET 2.593102 0.000000 0.000000
											CHANNELS 3 Xrotation Yrotation Zrotation
											End Site
											{
												OFFSET -0.150902 2.584198 0.152708
											}
										}
									}
								}
							}
							JOINT newVegas:Left_Sleeve
							{
								OFFSET 0.267448 -0.649796 0.577675
								CHANNELS 3 Xrotation Yrotation Zrotation
								End Site
								{
									OFFSET 0.000000 15.991241 0.000000
								}
							}
							JOINT newVegas:Left_CapeC
							{
								OFFSET 15.715958 -8.608795 -6.935905
								CHANNELS 3 Xrotation Yrotation Zrotation
								JOINT newVegas:Left_CapeC1
								{
									OFFSET 0.000000 -8.688499 0.000000
									CHANNELS 3 Xrotation Yrotation Zrotation
									End Site
									{
										OFFSET 0.000000 8.688499 0.000000
									}
								}
							}
						}
						JOINT newVegas:Left_CapeB
						{
							OFFSET 26.118385 -8.608795 -7.079235
							CHANNELS 3 Xrotation Yrotation Zrotation
							JOINT newVegas:Left_CapeB1
							{
								OFFSET 0.000000 -8.688499 0.000000
								CHANNELS 3 Xrotation Yrotation Zrotation
								End Site
								{
									OFFSET 0.000000 8.688499 0.000000
								}
							}
						}
						JOINT newVegas:Left_CapeA
						{
							OFFSET 5.115639 -8.608795 -10.395809
							CHANNELS 3 Xrotation Yrotation Zrotation
							JOINT newVegas:Left_CapeA1
							{
								OFFSET 0.000000 -8.688499 0.000000
								CHANNELS 3 Xrotation Yrotation Zrotation
								End Site
								{
									OFFSET 0.000000 8.688499 0.000000
								}
							}
						}
					}
				}
				JOINT newVegas:RightShoulder
				{
					OFFSET -15.263000 10.923401 -0.547700
					CHANNELS 3 Xrotation Yrotation Zrotation
					JOINT newVegas:RightArm
					{
						OFFSET -25.438599 -2.830597 -13.032500
						CHANNELS 3 Xrotation Yrotation Zrotation
						JOINT newVegas:RightForeArm
						{
							OFFSET -29.960503 0.000000 0.000000
							CHANNELS 3 Xrotation Yrotation Zrotation
							JOINT newVegas:RightHand
							{
								OFFSET -27.849251 0.000000 0.000000
								CHANNELS 3 Xrotation Yrotation Zrotation
								JOINT newVegas:RightHandThumb1
								{
									OFFSET -4.487587 -3.305161 6.305391
									CHANNELS 3 Xrotation Yrotation Zrotation
									JOINT newVegas:RightHandThumb2
									{
										OFFSET -5.480453 -3.164139 3.164143
										CHANNELS 3 Xrotation Yrotation Zrotation
										JOINT newVegas:RightHandThumb3
										{
											OFFSET -5.159721 -2.978973 2.978967
											CHANNELS 3 Xrotation Yrotation Zrotation
											End Site
											{
												OFFSET -2.494507 5.926697 1.738678
											}
										}
									}
								}
								JOINT newVegas:RightHandIndex1
								{
									OFFSET -18.578728 -0.527832 5.208049
									CHANNELS 3 Xrotation Yrotation Zrotation
									JOINT newVegas:RightHandIndex2
									{
										OFFSET -3.192009 0.000000 0.000000
										CHANNELS 3 Xrotation Yrotation Zrotation
										JOINT newVegas:RightHandIndex3
										{
											OFFSET -3.835129 0.000000 0.000000
											CHANNELS 3 Xrotation Yrotation Zrotation
											End Site
											{
												OFFSET 0.034599 3.816971 0.371180
											}
										}
									}
								}
								JOINT newVegas:RightHandMiddle1
								{
									OFFSET -18.476105 0.000000 0.000000
									CHANNELS 3 Xrotation Yrotation Zrotation
									JOINT newVegas:RightHandMiddle2
									{
										OFFSET -3.324875 0.000000 0.000000
										CHANNELS 3 Xrotation Yrotation Zrotation
										JOINT newVegas:RightHandMiddle3
										{
											OFFSET -4.596550 0.000000 0.000000
											CHANNELS 3 Xrotation Yrotation Zrotation
											End Site
											{
												OFFSET -0.057701 4.578827 0.399218
											}
										}
									}
								}
								JOINT newVegas:RightHandRing1
								{
									OFFSET -17.732719 0.121887 -4.201567
									CHANNELS 3 Xrotation Yrotation Zrotation
									JOINT newVegas:RightHandRing2
									{
										OFFSET -2.733170 0.000000 0.000000
										CHANNELS 3 Xrotation Yrotation Zrotation
										JOINT newVegas:RightHandRing3
										{
											OFFSET -3.178268 0.000000 0.000000
											CHANNELS 3 Xrotation Yrotation Zrotation
											End Site
											{
												OFFSET -0.119102 3.170624 0.185394
											}
										}
									}
								}
								JOINT newVegas:RightHandPinky1
								{
									OFFSET -15.989624 -0.606689 -7.535461
									CHANNELS 3 Xrotation Yrotation Zrotation
									JOINT newVegas:RightHandPinky2
									{
										OFFSET -2.538986 0.000000 0.000000
										CHANNELS 3 Xrotation Yrotation Zrotation
										JOINT newVegas:RightHandPinky3
										{
											OFFSET -2.593102 0.000000 0.000000
											CHANNELS 3 Xrotation Yrotation Zrotation
											End Site
											{
												OFFSET 0.150902 2.584198 0.152708
											}
										}
									}
								}
							}
							JOINT newVegas:Right_CapeC
							{
								OFFSET -15.715958 -8.608795 -6.935905
								CHANNELS 3 Xrotation Yrotation Zrotation
								JOINT newVegas:Right_CapeC1
								{
									OFFSET 0.000000 -8.688499 0.000000
									CHANNELS 3 Xrotation Yrotation Zrotation
									End Site
									{
										OFFSET 0.000000 8.688499 0.000000
									}
								}
							}
							JOINT newVegas:Right_Sleeve
							{
								OFFSET -0.267448 -0.649994 0.577675
								CHANNELS 3 Xrotation Yrotation Zrotation
								End Site
								{
									OFFSET 0.000000 15.991302 0.000000
								}
							}
						}
						JOINT newVegas:Right_CapeA
						{
							OFFSET -5.115540 -8.608795 -10.395824
							CHANNELS 3 Xrotation Yrotation Zrotation
							JOINT newVegas:Right_CapeA1
							{
								OFFSET 0.000000 -8.688499 0.000000
								CHANNELS 3 Xrotation Yrotation Zrotation
								End Site
								{
									OFFSET 0.000000 8.688499 0.000000
								}
							}
						}
						JOINT newVegas:Right_CapeB
						{
							OFFSET -26.118187 -8.608795 -7.079266
							CHANNELS 3 Xrotation Yrotation Zrotation
							JOINT newVegas:Right_CapeB1
							{
								OFFSET 0.000000 -8.688499 0.000000
								CHANNELS 3 Xrotation Yrotation Zrotation
								End Site
								{
									OFFSET 0.000000 8.688499 0.000000
								}
							}
						}
					}
				}
				JOINT newVegas:Left_Collar
				{
					OFFSET 18.625099 8.655502 8.828100
					CHANNELS 3 Xrotation Yrotation Zrotation
					JOINT newVegas:Left_Collar1
					{
						OFFSET 14.783401 10.540405 -1.259500
						CHANNELS 3 Xrotation Yrotation Zrotation
						End Site
						{
							OFFSET 0.000000 18.199875 0.000000
						}
					}
				}
				JOINT newVegas:Collar_Back
				{
					OFFSET 0.000000 15.630707 -20.132601
					CHANNELS 3 Xrotation Yrotation Zrotation
					End Site
					{
						OFFSET 0.000000 22.523010 0.000000
					}
				}
				JOINT newVegas:Left_Peck
				{
					OFFSET 17.239599 -5.132599 25.482599
					CHANNELS 3 Xrotation Yrotation Zrotation
					End Site
					{
						OFFSET 0.000000 22.523010 0.000000
					}
				}
				JOINT newVegas:Right_Peck
				{
					OFFSET -17.239599 -5.132202 25.482599
					CHANNELS 3 Xrotation Yrotation Zrotation
					End Site
					{
						OFFSET 0.000000 22.523010 0.000000
					}
				}
				JOINT newVegas:Right_Collar
				{
					OFFSET -18.625099 8.655792 8.828100
					CHANNELS 3 Xrotation Yrotation Zrotation
					JOINT newVegas:Right_Collar1
					{
						OFFSET -14.783401 10.539993 -1.259500
						CHANNELS 3 Xrotation Yrotation Zrotation
						End Site
						{
							OFFSET 0.000000 18.199631 0.000000
						}
					}
				}
			}
		}
		JOINT newVegas:Belly
		{
			OFFSET 0.000000 -6.540398 9.014299
			CHANNELS 3 Xrotation Yrotation Zrotation
			End Site
			{
				OFFSET 0.000000 11.566666 0.000000
			}
		}
	}
	JOINT newVegas:ElvisFacialAnim_Joint
	{
		OFFSET 1.000000 -95.330101 -8.825800
		CHANNELS 3 Xrotation Yrotation Zrotation
		End Site
		{
			OFFSET 0.000000 35.315800 0.000000
		}
	}
}
MOTION
Frames: 4
Frame Time: 0.033333
103.678726 89.091866 -0.320176 -9.909131 78.485738 15.298080 -0.000000 -0.000001 0.000000 2.783645 13.127672 -5.245323 39.629475 -2.585100 -0.150038 -17.313988 -3.664128 -2.852946 -0.000002 0.000000 0.000000 0.000001 0.000000 0.000000 -33.376935 -12.368231 11.355386 35.337975 -12.521496 -4.001622 -14.343826 -28.477466 -12.896315 -0.000000 -0.000000 -0.000000 -0.000001 -0.000001 -0.000002 5.080187 -5.978586 2.088732 -0.916247 -1.512749 -0.147597 -0.930363 -1.505066 -0.161844 1.009470 -0.554016 -0.164927 1.009469 -0.554013 -0.164929 -0.000000 -0.000001 0.000000 1.009469 -0.554024 -0.164927 1.009464 -0.554033 -0.164927 0.000001 0.000000 0.000000 -0.000000 -0.000001 -0.000000 0.581707 -4.096493 -10.843012 -14.680271 1.307716 -66.184513 -0.000000 -1.742480 -0.000005 36.038124 -19.247657 15.777657 -4.102932 0.947263 7.037642 7.850885 26.741820 2.539787 0.000000 0.000003 -0.000002 0.401475 4.319592 -19.515164 2.102303 4.495620 -50.107060 -0.000001 0.000001 0.000000 1.156923 5.763936 -35.526621 2.102298 4.495608 -50.107046 -0.000000 0.000001 -0.000003 2.382548 7.018326 -52.789791 2.102304 4.495603 -50.107067 0.000000 0.000001 -0.000000 3.478648 7.670126 -65.323294 2.102284 4.495602 -50.107053 0.000000 0.000000 -0.000002 0.000000 -0.000003 -0.000001 0.000000 -0.000003 -0.000001 -0.000000 -0.000002 -0.000001 0.000001 0.000003 -0.000001 0.000001 0.000002 -0.000002 0.000001 0.000003 -0.000001 0.000001 0.000003 -0.000002 0.672890 -2.083129 11.315936 15.221891 -15.820861 63.209610 -0.000001 11.922594 0.000004 14.532209 12.859555 -6.707461 3.842784 2.153096 -8.253925 7.198725 -17.554840 0.580528 0.000001 -0.000002 -0.000001 -1.039659 0.149970 18.907628 1.866361 -3.729822 53.153400 -0.000000 0.000000 -0.000001 0.378482 -4.145581 31.953114 1.882771 -3.742035 53.405294 0.000001 0.000001 -0.000001 1.296893 -5.453734 43.706807 1.645824 -3.554228 49.682386 -0.000000 0.000001 -0.000001 1.217365 -15.234541 47.927045 2.192198 -3.952549 58.014507 0.000000 0.000003 0.000001 -0.000000 0.000001 -0.000000 -0.000000 0.000001 0.000000 -0.000000 0.000001 -0.000000 0.000000 0.000002 0.000000 0.000000 0.000003 0.000000 0.000000 0.000002 0.000000 0.000000 0.000003 0.000001 0.000000 0.000001 -0.000000 0.000000 0.000001 -0.000000 0.000000 0.000001 -0.000000 0.000000 0.000001 -0.000000 0.000000 0.000001 -0.000000 0.000000 0.000001 -0.000000 0.000000 0.000001 -0.000000 -0.000000 -0.000000 -0.000000 -0.000000 -0.000001 0.000000 
106.970299 88.772011 -0.397249 -10.374142 76.173439 15.349619 -0.000001 0.000000 0.000000 -5.778306 14.406390 1.436971 48.518973 -6.464452 -0.729446 -2.673192 -5.316895 -10.749252 0.000000 0.000001 0.000000 0.000001 0.000000 0.000000 -30.744355 -12.838324 12.304989 37.308341 -12.832462 -3.565109 -18.512678 -27.943786 -15.913238 -0.000000 -0.000000 0.000000 0.000000 0.000001 -0.000002 4.604625 -6.982470 3.105623 -1.226942 -1.781734 -0.134794 -1.248396 -1.771749 -0.148812 1.012459 -0.603897 -0.101938 1.012463 -0.603905 -0.101936 -0.000000 0.000002 -0.000001 1.012533 -0.603931 -0.101936 1.012388 -0.603880 -0.101946 0.000001 -0.000002 0.000000 -0.000000 0.000002 -0.000001 0.583617 -3.981207 -10.774101 -13.675778 1.049475 -66.334155 0.000005 -2.668014 0.000004 33.719736 -18.898181 14.959834 -4.102934 0.947273 7.037626 7.850885 26.741806 2.539813 -0.000000 0.000002 -0.000006 0.401474 4.319595 -19.515160 2.102303 4.495613 -50.107043 0.000002 0.000000 0.000001 1.156916 5.763939 -35.526628 2.102294 4.495605 -50.107046 -0.000000 0.000001 0.000002 2.382556 7.018326 -52.789801 2.102300 4.495601 -50.107040 -0.000001 0.000001 -0.000000 3.478649 7.670130 -65.323287 2.102293 4.495593 -50.107057 0.000002 -0.000003 -0.000002 0.000001 -0.000001 -0.000000 0.000001 -0.000001 -0.000000 0.000000 -0.000001 0.000000 0.000002 -0.000002 0.000001 0.000002 -0.000003 0.000001 0.000002 -0.000002 0.000001 0.000001 -0.000002 0.000001 0.706984 -2.972147 11.828174 13.971246 -16.272712 62.159421 0.000000 11.051510 0.000021 15.181612 12.024151 -6.329888 3.842787 2.153075 -8.253935 7.198709 -17.554834 0.580523 0.000000 -0.000001 0.000001 -1.039656 0.149950 18.907640 1.866360 -3.729814 53.153393 -0.000000 0.000002 -0.000001 0.378484 -4.145588 31.953107 1.882767 -3.742019 53.405294 0.000001 -0.000002 -0.000000 1.296894 -5.453709 43.706821 1.645803 -3.554222 49.682362 0.000001 0.000001 -0.000002 1.217356 -15.234549 47.927045 2.192206 -3.952555 58.014500 -0.000001 -0.000002 -0.000000 0.000003 0.000001 0.000001 0.000001 0.000001 0.000001 0.000003 0.000001 0.000000 0.000000 0.000002 0.000002 0.000000 0.000002 0.000002 0.000000 0.000002 0.000002 0.000000 0.000002 0.000002 0.000000 -0.000001 -0.000001 0.000000 -0.000001 -0.000001 0.000000 -0.000001 -0.000001 0.000000 -0.000001 -0.000001 0.000000 -0.000001 -0.000001 0.000000 -0.000001 -0.000001 0.000000 -0.000001 -0.000001 -0.000000 0.000000 -0.000001 -0.000001 0.000000 0.000000 
109.905205 88.706100 -0.395227 -9.445901 72.827001 13.859339 -0.000000 -0.000001 0.000000 -9.154312 12.536056 6.452928 44.156937 -7.461135 -0.788230 18.682261 -7.847618 -22.943872 -0.000000 -0.000001 -0.000001 -0.000003 0.000001 0.000001 -28.265397 -13.488240 12.544328 39.165302 -11.763625 -3.163900 -21.145096 -26.209405 -15.894393 0.000000 -0.000001 -0.000000 0.000001 -0.000001 0.000001 4.865051 -7.549563 3.855279 -1.376990 -1.935287 -0.091713 -1.403170 -1.924829 -0.103221 0.981779 -0.679723 -0.002013 0.981782 -0.679721 -0.002013 0.000000 0.000002 -0.000001 0.981772 -0.679717 -0.002011 0.981915 -0.679768 -0.002006 -0.000000 -0.000002 0.000000 0.000000 0.000002 0.000000 0.583769 -4.066261 -10.482002 -12.297801 -0.231188 -66.251742 -0.000003 -4.301461 -0.000000 31.802460 -18.839035 14.109479 -4.102942 0.947269 7.037635 7.850891 26.741828 2.539792 0.000005 0.000001 -0.000006 0.401475 4.319602 -19.515189 2.102297 4.495619 -50.107053 -0.000000 -0.000000 0.000001 1.156920 5.763940 -35.526618 2.102307 4.495612 -50.107060 0.000000 0.000001 -0.000003 2.382544 7.018330 -52.789801 2.102297 4.495601 -50.107043 -0.000001 0.000001 -0.000001 3.478651 7.670141 -65.323308 2.102283 4.495601 -50.107070 0.000000 -0.000003 0.000001 -0.000000 -0.000003 0.000002 -0.000000 -0.000003 0.000002 -0.000001 -0.000003 0.000002 0.000000 0.000000 -0.000002 0.000000 -0.000001 -0.000002 0.000000 0.000000 -0.000002 -0.000001 0.000001 -0.000003 0.784897 -3.976182 12.820116 11.966835 -15.836608 60.932282 0.000007 10.665713 -0.000008 14.854398 11.578649 -5.120456 3.842776 2.153078 -8.253953 7.198727 -17.554834 0.580536 0.000000 -0.000002 -0.000001 -1.039675 0.149969 18.907634 1.866350 -3.729831 53.153379 0.000001 -0.000001 0.000003 0.378469 -4.145587 31.953093 1.882787 -3.742044 53.405287 0.000001 -0.000002 0.000001 1.296890 -5.453727 43.706807 1.645813 -3.554224 49.682396 0.000000 0.000001 -0.000001 1.217361 -15.234564 47.927028 2.192196 -3.952552 58.014513 0.000000 0.000003 0.000000 -0.000001 -0.000001 -0.000001 0.000003 -0.000000 -0.000000 -0.000001 -0.000001 -0.000002 -0.000001 -0.000001 -0.000000 -0.000001 -0.000001 -0.000001 -0.000001 -0.000001 -0.000000 -0.000001 -0.000001 -0.000001 0.000000 -0.000001 0.000001 0.000000 -0.000001 0.000001 0.000000 -0.000001 0.000001 0.000000 -0.000001 0.000001 0.000000 -0.000001 0.000001 0.000000 -0.000001 0.000001 0.000000 -0.000001 0.000001 -0.000000 0.000001 -0.000002 -0.000000 -0.000001 0.000000 
112.574417 89.222649 -0.138822 -7.463117 67.401523 11.579479 0.000000 -0.000003 -0.000000 -13.854065 10.095908 7.551934 49.437097 -3.902473 -0.345813 23.100984 -6.228812 -21.484780 -0.000002 0.000000 0.000000 -0.000000 0.000000 -0.000000 -25.380563 -13.590308 12.095723 39.328438 -10.631658 -2.643250 -21.437595 -21.401942 -14.327782 0.000000 -0.000001 -0.000001 -0.000000 0.000000 -0.000002 5.734101 -7.261559 3.895671 -1.408751 -1.869248 -0.015085 -1.435190 -1.860014 -0.020995 0.946517 -0.765297 0.109151 0.946518 -0.765265 0.109151 0.000000 0.000000 -0.000000 0.946587 -0.765322 0.109158 0.946448 -0.765272 0.109148 -0.000001 -0.000002 -0.000001 0.000000 0.000000 -0.000001 0.585410 -4.252790 -10.009694 -10.633425 -2.097057 -65.907316 -0.000012 -6.631844 -0.000023 30.873237 -18.943875 13.793174 -4.102928 0.947271 7.037635 7.850893 26.741816 2.539773 0.000003 0.000000 -0.000003 0.401479 4.319596 -19.515172 2.102292 4.495617 -50.107077 -0.000000 0.000000 -0.000000 1.156932 5.763937 -35.526618 2.102294 4.495596 -50.107046 -0.000000 0.000000 -0.000000 2.382551 7.018329 -52.789788 2.102303 4.495607 -50.107067 -0.000001 -0.000001 0.000002 3.478656 7.670133 -65.323321 2.102289 4.495599 -50.107050 0.000002 -0.000003 -0.000000 0.000001 0.000001 -0.000001 0.000001 0.000001 -0.000001 0.000000 0.000001 -0.000001 0.000002 0.000000 -0.000000 0.000001 0.000000 0.000001 0.000002 0.000000 -0.000000 0.000000 0.000001 -0.000000 0.894222 -4.680548 14.004943 9.500756 -14.743902 60.047219 -0.000007 10.816072 -0.000007 13.506363 11.520328 -3.969193 3.842781 2.153084 -8.253924 7.198693 -17.554833 0.580519 0.000000 -0.000000 -0.000000 -1.039662 0.149948 18.907620 1.866367 -3.729823 53.153396 0.000000 0.000001 0.000001 0.378474 -4.145594 31.953090 1.882770 -3.742029 53.405290 -0.000000 -0.000004 0.000002 1.296892 -5.453742 43.706807 1.645820 -3.554220 49.682379 0.000001 -0.000001 0.000001 1.217341 -15.234546 47.927034 2.192200 -3.952541 58.014507 -0.000000 0.000003 -0.000000 -0.000000 -0.000000 -0.000001 -0.000000 -0.000001 -0.000001 -0.000000 -0.000001 -0.000001 0.000002 0.000002 0.000001 0.000002 0.000002 0.000000 0.000002 0.000002 0.000001 0.000002 0.000001 0.000000 0.000000 -0.000002 -0.000000 0.000000 -0.000002 -0.000000 0.000000 -0.000002 -0.000000 0.000000 -0.000002 -0.000000 0.000000 -0.000002 -0.000000 0.000000 -0.000002 -0.000000 0.000000 -0.000002 -0.000000 0.000000 -0.000000 0.000000 0.000000 -0.000003 -0.000000 
